<svg xmlns="http://www.w3.org/2000/svg" x="0px" y="0px" viewBox="0 0 172 172">
    <g fill-rule="nonzero" stroke="none" stroke-width="1" stroke-linecap="butt" stroke-linejoin="miter" stroke-miterlimit="10" stroke-dasharray="" stroke-dashoffset="0" font-family="none" font-weight="none" font-size="none" text-anchor="none" style="mix-blend-mode: normal">
        <path d="M0,172v-172h172v172z" fill="none"></path>
        <g>
            <path d="M43,71.66667c-7.91608,0 -14.33333,6.41725 -14.33333,14.33333c0,7.91608 6.41725,14.33333 14.33333,14.33333c7.91608,0 14.33333,-6.41725 14.33333,-14.33333c0,-7.91608 -6.41725,-14.33333 -14.33333,-14.33333zM86,71.66667c-7.91608,0 -14.33333,6.41725 -14.33333,14.33333c0,7.91608 6.41725,14.33333 14.33333,14.33333c7.91608,0 14.33333,-6.41725 14.33333,-14.33333c0,-7.91608 -6.41725,-14.33333 -14.33333,-14.33333zM129,71.66667c-7.91608,0 -14.33333,6.41725 -14.33333,14.33333c0,7.91608 6.41725,14.33333 14.33333,14.33333c7.91608,0 14.33333,-6.41725 14.33333,-14.33333c0,-7.91608 -6.41725,-14.33333 -14.33333,-14.33333z"></path>
        </g>
    </g>
</svg>