<svg xmlns="http://www.w3.org/2000/svg" viewBox="0 0 172 172">
    <g fill-rule="nonzero" stroke="none" stroke-width="1" stroke-linecap="butt" stroke-linejoin="miter" stroke-miterlimit="10" stroke-dasharray="" stroke-dashoffset="0" font-family="none" font-weight="none" font-size="none" text-anchor="none" style="mix-blend-mode: normal">
        <path d="M0,172v-172h172v172z" fill="none"></path>
        <path d="M84.86621,14.34733c-3.84656,0.05956 -7.76934,0.41242 -11.72982,1.10579c-28.8745,5.06683 -52.21129,28.1239 -57.54329,56.95541c-8.4065,45.46533 26.4394,85.25814 70.4069,85.25814c36.80083,0 67.21258,-27.88483 71.21875,-63.63216c0.48017,-4.27133 -2.86667,-8.03451 -7.16667,-8.03451c-3.58333,0 -6.66769,2.63901 -7.05469,6.20084c-3.10317,28.7025 -27.48506,51.13249 -56.9974,51.13249c-35.4105,0 -63.42388,-32.26534 -56.18555,-68.93718c4.35733,-22.0805 22.01914,-39.91889 44.0638,-44.46972c20.51604,-4.23449 39.59957,2.64588 52.57422,15.63509l-10.24609,10.24609c-3.21067,3.21067 -0.93917,8.69238 3.59733,8.69238h30.69629c3.956,0 7.16667,-3.21067 7.16667,-7.16667v-30.69629c0,-4.54367 -5.48889,-6.822 -8.69239,-3.61133l-12.40169,12.40169c-13.21023,-13.2386 -31.49948,-21.39296 -51.70638,-21.08008z"></path>
    </g>
</svg>