<svg xmlns="http://www.w3.org/2000/svg" x="0px" y="0px" viewBox="0 0 172 172">
    <g fill-rule="nonzero" stroke="none" stroke-width="1" stroke-linecap="butt" stroke-linejoin="miter" stroke-miterlimit="10" stroke-dasharray="" stroke-dashoffset="0" font-family="none" font-weight="none" font-size="none" text-anchor="none" style="mix-blend-mode: normal">
        <path d="M0,172v-172h172v172z" fill="none"></path>
        <g>
            <path d="M86,35.83333c-25.714,0 -49.32022,9.03235 -67.81738,24.08952c-4.60817,3.74817 -4.87154,10.72156 -0.67187,14.92122c3.49733,3.49733 9.03358,3.94648 12.98958,0.99382c15.50867,-11.59567 34.68767,-18.50456 55.49967,-18.50456c20.812,0 39.99101,6.91606 55.49968,18.50456c3.96317,2.95983 9.49225,2.48952 12.98958,-1.00781c4.19967,-4.19967 3.92912,-11.17306 -0.67187,-14.92122c-18.49717,-15.05 -42.10339,-24.07552 -67.81739,-24.07552zM86,71.66667c-15.10733,0 -29.2045,4.31232 -41.19434,11.72982c-5.90533,3.64783 -6.8828,11.85971 -1.97363,16.76887c3.56183,3.56183 9.05352,4.03708 13.35352,1.39974c8.69317,-5.32483 18.89245,-8.39844 29.81445,-8.39844c10.965,0 21.21176,3.10776 29.92643,8.46843c4.22833,2.6015 9.64589,2.12592 13.15756,-1.38575l0.19596,-0.19596c4.87333,-4.87333 3.90135,-12.94692 -1.90364,-16.55892c-12.03284,-7.47483 -26.19731,-11.8278 -41.37631,-11.8278zM86,107.5c-6.493,0 -12.63629,1.45774 -18.15462,4.05924c-4.50067,2.11417 -5.53446,8.08501 -2.01562,11.60384l12.76563,12.76562c4.09217,4.09217 10.71708,4.09217 14.80924,0l12.76563,-12.76562c3.51883,-3.51883 2.48504,-9.48968 -2.01562,-11.60384c-5.51833,-2.6015 -11.66162,-4.05924 -18.15462,-4.05924z"></path>
        </g>
    </g>
</svg>